<?xml version="1.0" encoding="UTF-8"?>
<svg id="Layer_2" data-name="Layer 2" xmlns="http://www.w3.org/2000/svg" viewBox="0 0 1178.84 1178.84">
  <defs>
    <style>
      .cls-1 {
        fill: #f18921;
      }
    </style>
  </defs>
  <g id="Layer_1-2" data-name="Layer 1">
    <g>
      <path class="cls-1" d="M382.56,152.22l3.12,1.14c-4.4,2.36-6.48,7.06.59,6.16l.74-3.2c1.13-.19.7,1.58.52,2.16-.15.47-2.3,4.88-2.53,5.05-.28.21-2.08-.68-2.94-.69-3.15-.05-2.44,2.53-3.56,4.33-.95,1.51-3.45,2.24-4.16,3.77s.51,2.77.14,3.97c-.31,1-2.53,1.53-2.56,2.08,0,.16,1.91,1.74,1.29,2.96l-1.56-.55-1.1,1.54c-.28,2.87,3.19,2.44,3.38,3.36l-1.03,4.18-1.31.66c-6.76-1.14-12.59,3.99-3.66,6.62l-.62,4.53c-2.05.52-.98-1.73-2.22-2.69-2.8-2.18-7.46.41-5.03,4.37,1.21,1.98,4.82,2.12,5.95,4.21-2.75-.74-6.14-.27-8.72-.79-4.5-.92-6.92-5.03-12.28.14l-.67-2.3c-2.51,1.91-1.18,3.94-1.59,5.61-.19.77-1.31,2-1.81,2.81-4,6.42-23.06,23.8-22.82,29.66.04.88,1.08,1.65,1.27,2.66.92,4.92-3.18,6.96-3.33,10.44-.2,4.46,4.76,10.59,5.32,15.76.4,3.7.36,11.35,0,15.09-.78,7.98-4.68,13.07-2.33,22.03,2.14,8.15,15.38,19.3,21.35,25.9,2,2.2,3.73,5.51,5.9,7.88,14.14,15.4,41.27,38.94,59.52,48.77,6.73,3.62,8.28-2.76,12.38-6.44,7.69-6.91,19.59-13.66,28.19-20.38,4.99-3.89,9.58-8.43,14.48-12.43s11.51-7.95,16.07-12.15c5.96-5.51,5.55-12.37,13.34-16.85,4.09-2.35,18.03-7.83,22.49-8.35,11.28-1.32,23.04,2.64,34.11-.68.25-11.89-8.71-6.52-15.82-5.96-7.1.55-16.42,1.15-17.88-7.69-.4-2.45.27-5.15-.45-7.42-.68-2.15-3-2.26-3.39-3.87-.53-2.18,1.04-3.35.89-4.86s-2.31-3.55-2.44-5.39c-.2-3.02,2.87-4.6,2.48-7.69-.36-2.85-4.95-2.11-5.19-6.05-.27-4.35,8.56-12.81,7.93-19.68-.29-3.19-4.14-1.74-6.27-2.93-.78-.44-3.8-3.75-2.91-4.63l3.93.65c.33-2.63-1.73-3.96-1.19-6.73.35-1.76,2.56-5.39,3.33-7.87,3.88-12.56,2.55-19.58,12.95-29.06,18.93-17.26,54.77-26.42,77.02-10.71,19.06,13.46,30.17,37.21,24.54,60.41-1.62,6.69-4.24,7.15.29,14.52,2.69,4.37,5.27,8.58,7.91,13.09,6.93,11.86,12.73,17.16,17.1,31.47,6.99,22.89,9.74,54.16,12.96,78.27,1.28,9.62,2.49,19.03,2.05,28.8l3.85,1.41c2.02.98,1.95,10.03,2.73,12.38.31.91,1.7.84,1.89,1.52.59,2.2,5.13,4.58,5.82,7.8.23,1.1,24.5,28.87,25.68,29.44,6.21,9.12,13.16,19.21,21.98,25.95,7.26,5.55,18.93,8.96,27.25,13.44,10.29,5.54,19.65,12.79,29.41,19.16,2.39,1.56,8.02,5.88,9.42,6.66.8.44,2.29-.1,3.32.29,8.89,3.33,17.71,9.88,26.58,12.82,2.14.71,7.34,1.81,9.14,2.61s4.24,3.4,5.8,4.76c3.98-.96-.59-4.43.61-5.94,2.43,0,4.76-2.69,6.09-3.1,7.65-2.36,16.37-.8,24.09-1.51,6.37-.58,13.17-3.71,19.77-3.91,3.19-.09,7.54.9,4.52,4.57-4.16,5.06-22.05,3.78-23.77,9.7-.37,1.27-.29,4.36-.14,5.78,1.23,11.42,17.33,23.55,24.27,32.17,2.47,3.07,8.95,12.18,9.17,15.8.21,3.41-2.76,3.07-3.18,4.65-.35,1.32,2.22,4.68,1.24,6.76-1.02.19-1.52-.1-2.33-.62-3.3-2.14-12.49-15.23-15.72-15.11-1.69,1.08-.52,2.43.21,3.72,3.13,5.55,7.77,7.01,8.5,14.47.1.97.68,1.72-.82,1.48-8.08-7.62-14.63-17.7-22.96-24.95-1.74-1.52-5.79-5.12-7.88-5.26-1.76-.12-1.08,2.27-.7,3.34,1.84,5.24,9.72,15.01,10.22,19.98.1.97.38,1.93-.99,1.64-.97-.4-8.7-10.23-9.8-11.87-7.04-10.49-9.65-17.25-20.42-25.52-1.85-1.42-8.15-4.98-8.06-.47s6.76,12.47,7.59,17.35c.71,4.18.74,11.37-4.93,11.86-4.04.35-13.08-10.89-17.41-12.49-3.36-1.24-9.19-1.54-12.24.52-5.88,3.97-14.47,11.56-17.65,17.79-.47.91-1.15,2.15-1.14,3.17.02,5.16,9.15,15.66,5.95,22.65-14.26,38.32-34.12,75.88-47.91,114.2-5.81,16.15-8.26,36.1-20.66,48.91-32.37,33.44-60.33-15.51-82.4-35.14-1.15-1.08-2.38-1.56-3.81-.71-12.87,26.21-22.34,54.03-34.47,80.56-1.68,3.67-9.52,17.1-9.37,19.58.21,3.37,10.73,9.23,13.33,13.64s1.78,8.53,2.64,13.11,9.24,14.03,12.19,18.65c19.87,31.05,32.66,69.32,50.97,101.3,1.31,2.3,3.51,4.26,4.65,6.51,1.9,3.74,2.21,8.64,4.1,12.31,1.68,3.27,5.69,7.46,7.88,11.15,4.29,7.24,13.88,23.19,15.06,30.87.21,1.36.43,2.98.02,4.31-.23.76-6.39,7.6-7.41,8.33-3.01,2.16-6.88,2.9-10.51,3.27-14.28,1.48-28.99,1.3-43.3,1.99-24.7,1.19-54.34,4-78.79,1.99-1.1-.09-2.99-.1-3.63-1.12-1.25-1.98-1.07-7.81,1.12-9.33,2.95-2.05,16.81-3.53,21.76-5.14,10.37-3.38,29.76-14.01,36.9-22.16,4.15-4.74-2.64-4.74-5.49-6.34-7.9-4.43-23.6-38.17-29.43-48.02-24.9-42.05-53.23-82.28-71.07-128.45-6.62-17.14.3-35.03,2.77-52.34,4.83-33.87,4.72-69.93,12.17-103.34,1.41-6.31,4.54-7.25,4.41-14.62-.06-3.19-1.96-4.16,1.36-7.18,3.71-3.38,7.23-2.91,10.06-8.97,3.85-8.23-3.26-7.74-6.02-12.88-2.37-4.43-4.72-17.18-4.03-22.11.41-2.93,6.06-12.06,1.45-13.38-2.94-.85-5.91.33-9.62-1.54-4.29-2.16-5.59-7.03-8.28-9.44-4.43-3.97-15.19,7.96-18.41,5.95-3.04-2.21-1.96-9.26-2.94-10.86-.62-1.01-5.09-2.32-6.53-4.63s-2.29-7.34-3.53-10.25c-1.97-4.6-8.07-14.42-8.59-18.31-.32-2.35.17-4.8-.07-7.15-.77-7.42-5.71-15.13-7.67-22.52-3.48-13.06-6.71-34.2-7.44-47.69-1.01-18.63,1.74-39.58.06-57.81-.11-1.21-.07-2.08-.76-3.18s-12.66-8.11-15.33-10.26c-2.56-2.07-5.13-6.46-8.57-6.59-2.68-.1-16.76,7.18-20.96,8.6-6.77,2.3-20.15,6.25-26.28,1.95-27.9-24.93-49.14-51.37-70.28-81.99-5.19-7.53-10.12-15.51-15.49-23.23-4.66-6.7-14.07-17.13-16.62-24.07-1.3-3.54-1.51-8.13-2.58-11.2-.58-1.64-2.31-1.87-2.39-2.35-.19-1.16,1.18-2.6,1.36-3.9.68-4.97-6.75-9.3-6.62-16.37.07-3.83,3.21-3.86,3.86-6.03.95-3.16-1.58-6.22.21-8.99,1.94-3,5.24-.67,6.74-1.74,1.77-1.25,1.86-5.91,3.21-7.02s4.71-.46,6.38-1.17c1.98-.84,5.5-6.59,8.06-7.7,2.83-1.23,5.24.96,7.04-.16l31.65-43.18c2.65-5.21-4.74-4.85-5.39-9.65l8.26-3.92c.5-.67-1.07-4-1.1-5.61-.05-2.87,1.62-4.49-.61-7.2,4.86-1.1,2.3-5,3.92-6.6,2.49-2.45,11.95-.37,9.78-6.46-.58-1.64-3.44.06-2.5-3.32.46-1.65,3.82.17,5.21-.37.27-2.67-1.95-5.2,1.31-6.56-.23,2.32.67,4.24,3.28,3.94l.62-4.29c2.23-.3,9.95-1.72,10.87-3.59.62-1.25-.15-4,1.98-3.97l4.89,3.71-2.47,3.31.69,2.04ZM376.18,151.94c-1.41-.15-8.22,4.44-5.62,6.05,1.29.79,2.42-.35,3.53-.17.86.14,2.26,2.23,3.4.48.81-1.25.6-6.16-1.31-6.36ZM366.15,159.76c-.78.79-1.18,3.53-.53,4.47,3.21,3.1,7.07-4.84,3.32-5.31-.68-.09-2.3.35-2.79.84ZM605.55,318.43c.31-.38,8.5,2.05,9.44,2.7,1.92,1.33,2.96,8.14,5.03,3.52-.65-7.44-1.87-15.53-1.37-22.98.34-5.08,3.57-12.87.68-17.04-3.21-4.64-9.82-8.78-15.49-6.3-2.19,1.8-1.79,19.71-1.57,23.36.34,5.51,1.86,10.72,2.62,16.08-.56.57,1.21,2.46.66.66ZM661.34,558.64c.26-1.89-3.37-13.44-3.98-6.91-.26,2.72,2.63,20.75,3.63,23.34,2.26,5.82,11.06,15.99,14.48,22.93,3.71,7.53,6.59,16.94,7.51,25.31.6,5.48-.23,13.79.82,18.87.76,3.68,4.92,6.8,5.13,10.67s-2.11,5.74-2.52,8.68c-.44,3.1,5.71,15.59,9.29,14.54,2.74-.81,16.21-40.47,18.32-46.05,7.36-19.5,16.64-35.53,16.92-57.24.08-6.33-1.55-11.24-1.98-17.1-.11-1.47-.55-10.25,2.28-9.51,1.49,2.8,3.18,3.31,6.28,2.33.36-.12,6.27-3.68,6.53-3.96,1.41-1.54.6-3.44-1.14-4.13-10.4-3.99-22.08-7.18-32.12-11.85-15.89-7.39-30.72-33.01-43.19-46.07-1.47-1.53-6.68-7.68-7.55-2.94-1.7,9.24.84,18.45,1.33,27.53.28,5.26-.77,10.14-.71,15.15.06,4.74,1.76,13.43,1.35,17.69-.14,1.47-1.96,1.77-2.02,3.91-.08,3.18,1.61,8.97,1.93,12.59.06.74.61,2.36-.57,2.21ZM631.15,516.63l-3.31-25.25-1.62-2.18c-1.81-.12-10.74,9.5-12.8,11.36-1.38,1.25-5.66,3.67-6.25,4.92-1.21,2.58,1.48,3.68,2.67,5.86s1.21,4.51,2.12,6.41c1.09,2.26,3.27,2.03,3.42,4.12-1.33.04-3.79-.18-4.85.6-.59.43-.24,1.46-.55,1.82-.6.71-3.14,1.03-3.77,2.5,2.4,2.75,5.2-.59,7.88-.08,2.13.41,11.36,3.13,13.12,4.01,2.56,1.28,3.49,4.2,6.5,3.56,2.59-8.15.15-15.48-.92-23.58l-.99-.65-.65,6.56ZM631.13,501.54c-.11-2.49.19-5.05,0-7.54-.07-.89-.32-3.97-1.3-4.27v6.88s1.3,4.93,1.3,4.93ZM638.36,539.61c.5-5.8,1.64-12.11-.32-17.72-2.2,5.09-1.66,11.33-.98,16.74.15,1.19-.26,1.07,1.3.98Z"/>
    </g>
  </g>
</svg>